<svg height="512pt" viewBox="0 -56 512 511" width="512pt" xmlns="http://www.w3.org/2000/svg"><path d="m351 8c-37.277344 2.402344-71.066406 15.59375-95 40.609375-23.941406-25.023437-57.667969-40.609375-95.035156-40.609375-72.628906 0-131.507813 58.878906-131.507813 131.507812 0 73.632813 51.007813 125.0625 95.445313 161.644532 28.765625 23.683594 56.621094 41.835937 59.703125 43.832031l71.394531 46.148437 71.394531-46.152343c3.082031-1.992188 30.9375-20.148438 59.703125-43.828125 44.4375-36.582032 95.445313-88.015625 95.445313-161.648438 0-62.675781-43.847657-115.105468-102.542969-128.296875 0 0-12.003906-4.300781-29-3.207031zm0 0" fill="#ef2d57"/><g fill="#d4284d"><path d="m388.6875 13.480469c15.070312 80.492187 25.277344 274.257812-207.882812 329.003906 1.941406 1.289063 3.261718 2.148437 3.800781 2.496094l71.394531 46.152343 71.394531-46.152343c3.082031-1.992188 30.9375-20.148438 59.703125-43.828125 44.4375-36.582032 95.445313-88.015625 95.445313-161.648438 0-59.539062-39.578125-109.832031-93.855469-126.023437zm0 0"/><path d="m428.644531 229.96875-25.929687-52.125c-1.359375-2.734375-4.238282-4.371094-7.273438-4.140625-3.042968.226563-5.640625 2.273437-6.578125 5.175781l-23.929687 74.183594-29.507813-67.3125c-1.664062-3.792969-6.085937-5.519531-9.878906-3.859375-3.792969 1.664063-5.523437 6.085937-3.859375 9.882813l37.445312 85.417968c1.199219 2.738282 3.902344 4.492188 6.867188 4.492188.125 0 .253906-.003906.378906-.011719 3.113282-.15625 5.804688-2.222656 6.761719-5.1875l24.347656-75.476563 19.796875 39.796876c1.269532 2.550781 3.871094 4.160156 6.71875 4.160156h19.617188c3.753906-4.832032 7.339844-9.832032 10.710937-15h-25.6875zm0 0"/><path d="m308.867188 125.171875c-1.207032-2.761719-3.941407-4.53125-6.972657-4.488281-3.011719.042968-5.710937 1.886718-6.84375 4.679687l-35.324219 87.039063-29.679687-49.886719c-1.523437-2.5625-4.421875-3.980469-7.378906-3.609375s-5.414063 2.457031-6.257813 5.316406l-29.917968 101.21875-38.394532-112.675781c-.980468-2.878906-3.601562-4.878906-6.632812-5.066406s-5.882813 1.472656-7.210938 4.207031l-37.945312 78.0625h-38.640625c3.371093 5.167969 6.960937 10.164062 10.714843 15h32.617188c2.871094 0 5.488281-1.640625 6.746094-4.222656l32.03125-65.894532 40.125 117.75c1.035156 3.042969 3.894531 5.082032 7.097656 5.082032h.152344c3.269531-.070313 6.113281-2.242188 7.039062-5.375l31.738282-107.375 28.625 48.113281c1.457031 2.449219 4.171874 3.859375 7.011718 3.644531s5.3125-2.019531 6.382813-4.660156l34.316406-84.558594 10.25 23.375c1.660156 3.792969 6.082031 5.519532 9.878906 3.859375 3.792969-1.664062 5.519531-6.085937 3.859375-9.878906zm0 0"/></g><path d="m504.5 211.46875h-31.394531c45.421875-94.472656-6.160157-188.40625-91.460938-207.578125-4.042969-.910156-8.054687 1.628906-8.960937 5.671875-.910156 4.039062 1.628906 8.050781 5.671875 8.960938 77.683593 17.464843 124.710937 105.488281 78.105469 192.945312h-27.816407l-25.929687-52.125c-2.992188-6.015625-11.792969-5.34375-13.851563 1.035156l-23.933593 74.1875-26.855469-61.269531c-1.664063-3.796875-6.085938-5.523437-9.882813-3.859375-3.792968 1.664062-5.519531 6.085938-3.855468 9.878906l34.792968 79.378906c2.765625 6.300782 11.894532 5.847657 14.007813-.710937l24.347656-75.476563 19.800781 39.800782c1.269532 2.546875 3.867188 4.160156 6.714844 4.160156h23.351562c-47.789062 72.597656-151.25 127.960938-191.351562 155.734375-63.960938-41.441406-148.773438-91.054687-191.351562-155.734375h36.351562c2.871094 0 5.488281-1.640625 6.746094-4.222656l32.03125-65.894532 40.125 117.75c2.34375 6.886719 12.21875 6.710938 14.289062-.292968l31.738282-107.375 28.625 48.113281c3.171874 5.332031 11.074218 4.707031 13.394531-1.015625l34.316406-84.558594 10.25 23.375c1.664063 3.796875 6.085937 5.519532 9.878906 3.859375 3.792969-1.664062 5.519531-6.085937 3.859375-9.878906l-17.382812-39.65625c-2.691406-6.132813-11.351563-5.886719-13.820313.191406l-35.324219 87.042969-29.679687-49.890625c-3.335937-5.605469-11.785156-4.558594-13.636719 1.707031l-29.917968 101.21875-38.394532-112.675781c-2.148437-6.316406-10.914062-6.886719-13.84375-.863281l-37.945312 78.066406h-40.769532c-52.710937-98.914062 14.332032-195.96875 105.425782-195.96875 34.164062 0 65.992187 13.601562 89.613281 38.296875 2.953125 3.085937 7.890625 3.085937 10.839844 0 20.609375-21.542969 48.234375-34.945313 77.789062-37.738281 4.125-.390625 7.152344-4.050782 6.761719-8.175782-.390625-4.121093-4.050781-7.148437-8.171875-6.761718-30.617187 2.898437-59.375 15.933594-81.792969 36.9375-25.832031-24.277344-59.292968-37.558594-95.039062-37.558594-98.667969 0-174.082032 102.796875-122.070313 210.96875h-31.394531c-4.140625 0-7.5 3.355469-7.5 7.5 0 4.140625 3.359375 7.5 7.5 7.5h39.554688c43.15625 72.492188 134.308593 125.246094 204.875 170.964844 2.476562 1.601562 5.664062 1.601562 8.140624 0 70.46875-45.65625 161.703126-98.449219 204.875-170.964844h39.554688c4.140625 0 7.5-3.359375 7.5-7.5 0-4.144531-3.359375-7.5-7.5-7.5zm0 0"/></svg>