<svg height="512pt" viewBox="0 0 512 512" width="512pt" xmlns="http://www.w3.org/2000/svg"><path d="m240 16h32v480h-32zm0 0" fill="#2d2d2d"/><path d="m112 480h288c8.835938 0 16 7.164062 16 16s-7.164062 16-16 16h-288c-8.835938 0-16-7.164062-16-16s7.164062-16 16-16zm0 0" fill="#57565c"/><path d="m352 448h-192v-48c0-26.507812 21.492188-48 48-48h96c26.507812 0 48 21.492188 48 48zm0 0" fill="#77959e"/><path d="m480 176h-32v-64c0-8.835938-7.164062-16-16-16h-352c-8.835938 0-16 7.164062-16 16v64h-32v-64c0-26.507812 21.492188-48 48-48h352c26.507812 0 48 21.492188 48 48zm0 0" fill="#57565c"/><path d="m208 0h96v32h-96zm0 0" fill="#57565c"/><path d="m320 320h-128v-128c0-35.347656 28.652344-64 64-64s64 28.652344 64 64zm0 0" fill="#77959e"/><path d="m48 336c-26.507812 0-48-21.492188-48-48v-80c0-26.507812 21.492188-48 48-48s48 21.492188 48 48v80c0 26.507812-21.492188 48-48 48zm0 0" fill="#48c8ef"/><path d="m464 336c-26.507812 0-48-21.492188-48-48v-80c0-26.507812 21.492188-48 48-48s48 21.492188 48 48v80c0 26.507812-21.492188 48-48 48zm0 0" fill="#48c8ef"/><path d="m448 480h32v32h-32zm0 0" fill="#57565c"/><path d="m32 480h32v32h-32zm0 0" fill="#57565c"/><path d="m48 304c-26.507812 0-48-21.492188-48-48v32c0 26.507812 21.492188 48 48 48s48-21.492188 48-48v-32c0 26.507812-21.492188 48-48 48zm0 0" fill="#24b2d3"/><path d="m464 304c-26.507812 0-48-21.492188-48-48v32c0 26.507812 21.492188 48 48 48s48-21.492188 48-48v-32c0 26.507812-21.492188 48-48 48zm0 0" fill="#24b2d3"/><g fill="#62808c"><path d="m192 288h128v32h-128zm0 0"/><path d="m160 416h192v32h-192zm0 0"/></g></svg>